<?xml version="1.0" encoding="UTF-8" standalone="no"?>
<!-- Created with Inkscape (http://www.inkscape.org/) -->

<svg
   xmlns:dc="http://purl.org/dc/elements/1.1/"
   xmlns:cc="http://creativecommons.org/ns#"
   xmlns:rdf="http://www.w3.org/1999/02/22-rdf-syntax-ns#"
   xmlns:svg="http://www.w3.org/2000/svg"
   xmlns="http://www.w3.org/2000/svg"
   xmlns:sodipodi="http://sodipodi.sourceforge.net/DTD/sodipodi-0.dtd"
   xmlns:inkscape="http://www.inkscape.org/namespaces/inkscape"
   width="744.09448819"
   height="1052.3622047"
   id="svg3894"
   version="1.1"
   inkscape:version="0.48.2 r9819"
   sodipodi:docname="New document 6">
  <defs
     id="defs3896" />
  <sodipodi:namedview
     id="base"
     pagecolor="#ffffff"
     bordercolor="#666666"
     borderopacity="1.0"
     inkscape:pageopacity="0.0"
     inkscape:pageshadow="2"
     inkscape:zoom="1.979899"
     inkscape:cx="144.37709"
     inkscape:cy="411.20559"
     inkscape:document-units="px"
     inkscape:current-layer="layer1"
     showgrid="false"
     inkscape:window-width="1576"
     inkscape:window-height="1031"
     inkscape:window-x="96"
     inkscape:window-y="-8"
     inkscape:window-maximized="1" />
  <metadata
     id="metadata3899">
    <rdf:RDF>
      <cc:Work
         rdf:about="">
        <dc:format>image/svg+xml</dc:format>
        <dc:type
           rdf:resource="http://purl.org/dc/dcmitype/StillImage" />
        <dc:title></dc:title>
      </cc:Work>
    </rdf:RDF>
  </metadata>
  <g
     inkscape:label="Layer 1"
     inkscape:groupmode="layer"
     id="layer1">
    <path
       style="fill:#000000;fill-opacity:1;stroke:none"
       d="m 212.15371,652.8539 c -40.93241,-2.66883 -54.84726,32.42988 -58.1123,38.37151 -9.14707,16.64557 -7.63784,22.3793 -12.32667,22.10561 -4.84721,-0.28294 3.24245,5.00854 -70.58974,105.85648 l 52.03125,0 57.92481,-115.83788 c 10.59713,-21.19211 26.82908,-44.7802 68.43671,-20.7188 4.73307,2.7371 8.93382,10.71715 10.83867,20.71288 l 3.79981,0 c -0.25217,-10.4552 -5.80539,-20.83074 -10.78125,-28.6875 l -0.10075,-2.02223 c -0.24841,-4.98573 -14.50229,-18.04453 -41.12054,-19.78007 z"
       id="rect3902"
       inkscape:connector-curvature="0"
       sodipodi:nodetypes="sssccsscccss" />
    <path
       style="fill:#000000;fill-opacity:1;stroke:none"
       d="m 136.37059,777.60071 c 9.25973,-11.33099 19.52961,-6.53779 31.06219,1.76777 l -2.52538,3.28299 c -10.1251,-7.6604 -16.47337,-6.62248 -25.25381,2.52538 z"
       id="rect3912"
       inkscape:connector-curvature="0"
       sodipodi:nodetypes="ccccc" />
    <path
       style="fill:none;stroke:#000000;stroke-width:2.5;stroke-linecap:butt;stroke-linejoin:miter;stroke-opacity:1;stroke-miterlimit:4;stroke-dasharray:none"
       d="m 262.13458,704.36463 c 1.48097,-2.7469 10.1319,-5.26888 13.25836,-3.35283 2.99897,0.98038 5.6126,1.43915 6.74471,4.92054 1.20684,3.42736 0.16898,7.18114 1.27696,10.63245 0.27803,3.51595 0.19358,7.07528 -0.0149,10.58268 -0.51482,3.69186 -1.59108,12.82158 -3.00051,16.34203 -2.07672,7.1058 -5.21514,9.34711 -7.9358,16.27498 -2.45747,2.55444 -2.93464,6.55075 -5.91916,8.66761 -3.17191,0.52925 -3.9595,-3.83724 -6.12034,-5.37202 -2.32429,-3.25583 -3.84075,-6.9697 -4.99676,-10.776 -1.62114,-4.27797 -3.32482,-6.44293 -3.7383,-11.00695 -0.89595,-5.73357 -2.17662,-12.53961 -1.91112,-18.3594 0.16929,-3.90109 0.50068,-9.04816 0.57801,-12.93774 0.16212,-3.02284 1.85569,-6.52676 5.2179,-6.85118 2.21245,-0.58265 5.19523,-1.20958 6.56095,1.23583 z"
       id="path3921"
       inkscape:connector-curvature="0"
       sodipodi:nodetypes="ccccccccccccccc" />
    <path
       style="fill:none;stroke:#000000;stroke-width:2.5;stroke-linecap:butt;stroke-linejoin:miter;stroke-miterlimit:4;stroke-opacity:1;stroke-dasharray:none"
       d="m 263.80889,709.48465 c -4.68626,9.36873 -6.46798,15.26284 -5.50696,22.36264 0.49559,8.53667 5.87012,24.08917 7.32731,29.79125"
       id="path3927"
       inkscape:connector-curvature="0"
       sodipodi:nodetypes="ccc" />
    <path
       sodipodi:nodetypes="ccccccccccccccc"
       inkscape:connector-curvature="0"
       id="path4447"
       d="m 165.17214,780.79312 c 0.8873,-2.42476 8.74798,-6.52588 12.14868,-5.90412 3.09223,-0.0417 5.70881,-0.37239 7.49215,1.92694 1.84486,2.23993 1.58513,5.29994 3.3392,7.58311 0.96483,2.54468 1.58795,5.21485 2.08093,7.87826 0.23347,2.87945 1.00105,9.94951 0.33605,12.93146 -0.59996,5.82135 -3.18908,8.29611 -4.44656,14.15065 -1.86906,2.53265 -1.53893,5.62896 -4.00396,7.97154 -2.96046,1.20945 -4.58611,-1.83708 -6.97817,-2.42344 -2.89077,-1.82494 -5.09157,-4.19843 -6.96234,-6.73339 -2.41365,-2.76631 -4.48869,-3.93914 -5.79192,-7.22884 -2.00105,-4.03589 -4.58623,-8.77086 -5.48195,-13.16956 -0.6088,-2.94628 -1.30766,-6.86136 -2.00305,-9.77544 -0.44184,-2.29094 0.50102,-5.33366 3.68593,-6.43962 2.02269,-1.00246 4.78104,-2.23597 6.58501,-0.76755 z"
       style="fill:none;stroke:#000000;stroke-width:2.5;stroke-linecap:butt;stroke-linejoin:miter;stroke-miterlimit:4;stroke-opacity:1;stroke-dasharray:none" />
    <path
       sodipodi:nodetypes="ccc"
       inkscape:connector-curvature="0"
       id="path4449"
       d="m 168.71735,783.98708 c -3.78305,6.77463 0.0142,13.31287 2.17018,17.11028 1.85769,4.76141 5.34077,9.4898 7.83518,12.33662"
       style="fill:none;stroke:#000000;stroke-width:2.5;stroke-linecap:butt;stroke-linejoin:miter;stroke-miterlimit:4;stroke-opacity:1;stroke-dasharray:none" />
    <path
       style="fill:#808000;fill-opacity:1;stroke:none"
       d="M 183.82345,599.62072 C 142.41643,599.25771 117.12521,629.27314 99.75,673.0625 l 17.4402,9.83709 C 146.65874,621.195 172.68624,602.12796 233.03125,632.3125 l -6.5119,4.21622 43.99429,6.87753 -28.52379,-35.19686 -1.0211,8.16561 c -20.68322,-8.85935 -40.99961,-16.61273 -57.1453,-16.75428 z"
       id="rect4451"
       inkscape:connector-curvature="0"
       sodipodi:nodetypes="scccccccs" />
  </g>
</svg>
