<?xml version="1.0" encoding="UTF-8" standalone="no"?>
<!-- Created with Inkscape (http://www.inkscape.org/) -->

<svg
   xmlns:dc="http://purl.org/dc/elements/1.1/"
   xmlns:cc="http://creativecommons.org/ns#"
   xmlns:rdf="http://www.w3.org/1999/02/22-rdf-syntax-ns#"
   xmlns:svg="http://www.w3.org/2000/svg"
   xmlns="http://www.w3.org/2000/svg"
   xmlns:sodipodi="http://sodipodi.sourceforge.net/DTD/sodipodi-0.dtd"
   xmlns:inkscape="http://www.inkscape.org/namespaces/inkscape"
   width="250"
   height="250"
   id="svg3894"
   version="1.1"
   inkscape:version="0.48.4 r9939"
   sodipodi:docname="bend.svg"
   inkscape:export-filename="C:\home\vaucher\dev\js\branch-off\bend.png"
   inkscape:export-xdpi="23.09"
   inkscape:export-ydpi="23.09">
  <defs
     id="defs3896" />
  <sodipodi:namedview
     id="base"
     pagecolor="#ffffff"
     bordercolor="#666666"
     borderopacity="1.0"
     inkscape:pageopacity="0.0"
     inkscape:pageshadow="2"
     inkscape:zoom="1.4"
     inkscape:cx="250.81348"
     inkscape:cy="110.18038"
     inkscape:document-units="px"
     inkscape:current-layer="layer1"
     showgrid="false"
     inkscape:window-width="1013"
     inkscape:window-height="788"
     inkscape:window-x="257"
     inkscape:window-y="145"
     inkscape:window-maximized="0"
     fit-margin-top="0"
     fit-margin-left="0"
     fit-margin-right="0"
     fit-margin-bottom="0" />
  <metadata
     id="metadata3899">
    <rdf:RDF>
      <cc:Work
         rdf:about="">
        <dc:format>image/svg+xml</dc:format>
        <dc:type
           rdf:resource="http://purl.org/dc/dcmitype/StillImage" />
        <dc:title></dc:title>
      </cc:Work>
    </rdf:RDF>
  </metadata>
  <g
     inkscape:label="Layer 1"
     inkscape:groupmode="layer"
     id="layer1"
     transform="translate(-0.41432255,4.5008478)">
    <path
       style="fill:#000000;fill-opacity:1;stroke:none"
       d="m 158.76777,57.198992 c -43.90845,-2.86287 -58.834999,34.787734 -62.337427,41.161357 -9.812123,17.855811 -8.193159,24.006421 -13.2229,23.712831 -5.199632,-0.30351 3.478196,14.96914 -75.7220527,123.14935 l 51.7736357,1.01015 66.176924,-134.86661 c 11.19632,-22.817765 28.77972,-48.036004 73.41248,-22.225191 5.07719,2.936104 9.58337,11.496361 11.62671,22.218841 l 4.07608,0 c -0.2705,-11.21536 -6.22748,-22.34527 -11.56511,-30.773265 l -0.10808,-2.169259 c -0.26647,-5.348224 -15.5567,-19.356479 -44.11026,-21.218204 z"
       id="rect3902"
       inkscape:connector-curvature="0"
       sodipodi:nodetypes="sssccsscccss" />
    <path
       style="fill:#000000;fill-opacity:1;stroke:none"
       d="m 77.47474,191.01568 c 9.932974,-12.15483 20.949538,-7.01313 33.32061,1.89629 l -2.70899,3.52169 C 97.2251,188.2163 90.415271,189.32968 80.996435,199.14265 z"
       id="rect3912"
       inkscape:connector-curvature="0"
       sodipodi:nodetypes="ccccc" />
    <path
       style="fill:none;stroke:#000000;stroke-width:2.68176556;stroke-linecap:butt;stroke-linejoin:miter;stroke-miterlimit:4;stroke-opacity:1;stroke-dasharray:none"
       d="m 212.38256,112.45488 c 1.58865,-2.94662 10.86855,-5.65196 14.22233,-3.5966 11.14279,3.37571 9.1049,18.33426 8.58889,28.03589 -1.18587,12.74007 -9.2334,36.82478 -18.08097,44.28627 -7.22033,-1.22412 -15.19895,-23.16467 -15.93548,-29.1293 -1.29746,-8.29273 -5.33916,-39.65072 4.16724,-40.92194 2.37331,-0.62502 5.57296,-1.29753 7.03797,1.32568 z"
       id="path3921"
       inkscape:connector-curvature="0"
       sodipodi:nodetypes="cccccccc" />
    <path
       style="fill:none;stroke:#000000;stroke-width:2.68176556;stroke-linecap:butt;stroke-linejoin:miter;stroke-miterlimit:4;stroke-opacity:1;stroke-dasharray:none"
       d="m 214.1786,117.94716 c -10.9896,21.78306 -4.00209,33.34136 1.95271,55.9458"
       id="path3927"
       inkscape:connector-curvature="0"
       sodipodi:nodetypes="cc" />
    <path
       sodipodi:nodetypes="ccccccccc"
       inkscape:connector-curvature="0"
       id="path4447"
       d="m 108.37035,194.44019 c 0.95181,-2.60105 9.38401,-7.00035 13.03197,-6.33338 3.31705,-0.0447 6.12387,-0.39947 8.03687,2.06704 6.19426,11.62051 6.84934,22.66628 4.15438,35.76046 -2.13625,6.9469 -3.07072,14.44506 -7.04461,18.42731 -5.39387,0.78391 -12.09932,-5.99119 -14.95408,-9.82258 -5.90572,-6.11776 -10.31949,-13.70857 -12.093551,-21.88149 -1.230854,-5.79836 -4.16524,-15.12849 1.805231,-17.394 2.16976,-1.07535 5.12866,-2.39854 7.06379,-0.82336 z"
       style="fill:none;stroke:#000000;stroke-width:2.68176556;stroke-linecap:butt;stroke-linejoin:miter;stroke-miterlimit:4;stroke-opacity:1;stroke-dasharray:none" />
    <path
       sodipodi:nodetypes="cc"
       inkscape:connector-curvature="0"
       id="path4449"
       d="m 112.17332,197.86637 c -4.19042,11.01064 3.78747,23.57839 10.73281,31.58788"
       style="fill:none;stroke:#000000;stroke-width:2.68176556;stroke-linecap:butt;stroke-linejoin:miter;stroke-miterlimit:4;stroke-opacity:1;stroke-dasharray:none" />
    <path
       style="fill:#808000;fill-opacity:1;stroke:none"
       d="M 128.37773,0.09542972 C 83.96015,-0.29397336 56.830102,31.903765 38.191606,78.876883 L 56.899817,89.42919 C 88.510907,23.238294 116.43077,2.7849616 181.16324,35.164105 l -6.98536,4.522765 47.19295,7.377569 L 190.77318,9.3085493 189.67784,18.06785 C 167.49083,8.5643701 145.69731,0.24727128 128.37773,0.09542972 z"
       id="rect4451"
       inkscape:connector-curvature="0"
       sodipodi:nodetypes="scccccccs" />
  </g>
</svg>
