<?xml version="1.0" encoding="UTF-8" standalone="no"?>
<!-- Created with Inkscape (http://www.inkscape.org/) -->

<svg
   xmlns:dc="http://purl.org/dc/elements/1.1/"
   xmlns:cc="http://creativecommons.org/ns#"
   xmlns:rdf="http://www.w3.org/1999/02/22-rdf-syntax-ns#"
   xmlns:svg="http://www.w3.org/2000/svg"
   xmlns="http://www.w3.org/2000/svg"
   xmlns:sodipodi="http://sodipodi.sourceforge.net/DTD/sodipodi-0.dtd"
   xmlns:inkscape="http://www.inkscape.org/namespaces/inkscape"
   width="744.09448819"
   height="1052.3622047"
   id="svg3861"
   version="1.1"
   inkscape:version="0.48.2 r9819"
   sodipodi:docname="New document 5">
  <defs
     id="defs3863" />
  <sodipodi:namedview
     id="base"
     pagecolor="#ffffff"
     bordercolor="#666666"
     borderopacity="1.0"
     inkscape:pageopacity="0.0"
     inkscape:pageshadow="2"
     inkscape:zoom="1.4"
     inkscape:cx="532.95451"
     inkscape:cy="293.76436"
     inkscape:document-units="px"
     inkscape:current-layer="layer1"
     showgrid="false"
     inkscape:window-width="1576"
     inkscape:window-height="1031"
     inkscape:window-x="96"
     inkscape:window-y="-8"
     inkscape:window-maximized="1" />
  <metadata
     id="metadata3866">
    <rdf:RDF>
      <cc:Work
         rdf:about="">
        <dc:format>image/svg+xml</dc:format>
        <dc:type
           rdf:resource="http://purl.org/dc/dcmitype/StillImage" />
        <dc:title></dc:title>
      </cc:Work>
    </rdf:RDF>
  </metadata>
  <g
     inkscape:label="Layer 1"
     inkscape:groupmode="layer"
     id="layer1">
    <path
       style="fill:#000000;fill-opacity:1;stroke:none"
       d="m 365.07354,913.04499 c -5.59319,-0.59275 -28.23556,8.77095 -38.38579,6.14006 -4.86136,-1.26005 -14.63459,-4.19256 -21.71828,-6.5167 -30.56364,-10.02784 -49.96452,-2.40169 -63.94936,-2.41711 -3.85762,-0.004 -7.34008,-0.21416 -7.73879,-0.46646 -0.61564,-0.38956 -0.6251,-0.76122 -0.0628,-2.46515 0.52347,-1.58615 0.60072,-32.43452 0.36879,-49.14586 -0.16817,-12.11694 -0.52754,-22.21728 -0.84198,-23.66481 -0.30171,-1.38896 -0.75225,-11.04854 -1.0012,-21.46574 -0.78206,-32.72596 -1.51891,-39.46319 -5.30311,-48.48732 -0.64069,-1.52786 -1.64067,-4.8125 -2.22218,-7.29922 -1.08691,-4.64799 -7.85052,-19.42545 -12.58225,-27.4903 -1.20278,-2.05004 -4.24717,-7.84312 -6.76531,-12.87352 -5.24893,-10.48557 -7.42587,-13.90118 -11.7922,-18.50195 -1.71365,-1.80565 -3.75876,-4.48481 -4.5447,-5.95369 -0.78595,-1.46887 -2.83024,-4.35612 -4.54287,-6.4161 -4.22174,-5.07799 -17.8071,-18.93177 -28.35944,-28.91978 -6.14119,-5.81276 -9.91299,-9.86919 -12.92878,-13.90442 -6.74702,-9.02774 -14.36254,-16.81644 -19.90322,-20.35583 -5.49551,-3.51054 -7.68349,-8.39761 -8.23531,-18.39437 -0.55313,-10.0204 -1.97589,-13.00025 -11.57543,-24.24366 -4.704387,-5.51 -6.143607,-8.22829 -7.353907,-13.8896 -0.4751,-2.22233 -1.7482,-7.44987 -2.82911,-11.61675 -2.52987,-9.7526 -3.51963,-18.99463 -2.28904,-21.37432 0.85044,-1.64458 3.44598,-3.26652 6.10818,-3.81698 3.880707,-0.80241 13.717407,-1.86911 19.295587,-2.09244 5.25403,-0.21035 6.52321,-0.10503 8.60046,0.71375 3.22213,1.27004 8.33984,1.95185 17.56082,2.33953 12.64863,0.5318 15.65055,1.54194 20.96066,7.05325 1.25007,1.29742 4.81352,4.04275 7.91878,6.10071 3.22083,2.13456 7.34279,5.44758 9.59645,7.71313 3.52385,3.54245 4.34452,4.76135 7.59858,11.28577 2.00644,4.02291 3.96791,8.68543 4.35883,10.36115 1.73646,7.44352 7.3561,14.80614 15.00346,19.65688 1.26207,0.80053 4.25788,3.25238 6.65736,5.44854 5.90199,5.40191 10.40409,8.51974 23.04239,15.95749 6.21061,3.65499 14.06683,8.8202 18.65738,12.26661 4.42699,3.32361 9.8258,6.88586 12.22264,8.06475 2.36123,1.16138 4.95058,2.64299 5.75411,3.29247 2.25892,1.82583 5.59127,3.33779 11.92356,5.40995 3.19461,1.0454 7.14603,2.60255 8.78094,3.46034 3.03332,1.5915 3.86264,2.53083 10.55261,11.95259 1.28211,1.80565 4.30857,5.4422 6.72548,8.08122 2.4169,2.63903 6.53329,7.63928 9.14753,11.11168 2.98145,3.96017 6.73929,8.15379 10.0816,11.25076 2.93065,2.71552 6.26989,6.10511 7.42053,7.53243 6.27057,7.77832 8.10646,8.14415 14.71899,2.93305 1.66675,-1.3135 5.1056,-3.55414 7.64188,-4.97919 4.36303,-2.45145 8.26694,-5.88296 8.26893,-7.26832 4.9e-4,-0.34645 0.99036,-1.25498 2.19971,-2.01897 1.20934,-0.76398 4.44648,-3.35801 7.19364,-5.7645 5.39598,-4.72685 7.4761,-5.84732 14.84941,-7.99871 5.55802,-1.62174 9.91107,-3.44656 11.35912,-4.76181 0.55838,-0.50718 1.92438,-1.21225 3.03555,-1.56681 1.44991,-0.46266 3.3037,-1.96189 6.56599,-5.31015 7.15578,-7.34437 18.20399,-15.32303 28.09859,-20.2919 13.72157,-6.8907 15.32052,-7.89741 17.69548,-11.14118 1.16381,-1.58955 4.61404,-5.61751 7.66717,-8.95101 6.5879,-7.19286 8.4106,-9.60691 8.4106,-11.13927 0,-0.62629 1.62868,-3.6037 3.61928,-6.61647 1.9906,-3.01277 3.86572,-6.27326 4.16693,-7.24554 0.60632,-1.95716 4.77944,-9.4925 8.18828,-14.78546 4.89238,-7.59649 7.53244,-14.59864 8.51729,-22.59018 0.24608,-1.99681 1.431,-4.96479 4.214,-10.55525 5.11642,-10.27784 4.12748,-9.75682 17.76124,-9.35745 5.69474,0.16681 13.99061,0.65244 18.43528,1.07917 4.44468,0.42673 17.1726,0.94937 28.28428,1.16141 16.15862,0.30835 20.74891,0.54679 22.92981,1.19107 1.49972,0.44305 2.83468,0.91347 2.96661,1.04537 0.59402,0.59405 -0.65337,1.98794 -4.99421,5.58077 -2.56668,2.12439 -8.6606,8.06673 -13.54207,13.20519 -7.2379,7.61898 -9.32277,10.15194 -11.30034,13.72906 -3.80788,6.88788 -13.40013,21.50799 -17.79004,27.11483 -3.20568,4.09433 -5.00594,7.60785 -9.44592,18.43529 -2.89361,7.05642 -3.82418,8.70059 -9.43361,16.66752 -7.30299,10.37226 -10.1673,14.00141 -15.58939,19.7521 -3.76316,3.99123 -16.73507,20.10637 -24.75672,30.75552 -1.99461,2.64796 -5.55865,6.49581 -7.95297,8.5863 -4.82441,4.21219 -6.05429,5.65365 -7.97248,9.34391 -0.72197,1.38896 -2.10244,3.09359 -3.06769,3.78807 -0.96526,0.69448 -3.41816,3.30825 -5.4509,5.80838 -2.03273,2.50013 -4.52852,5.40492 -5.5462,6.45509 -1.01768,1.05018 -2.08812,2.59154 -2.37875,3.42525 -0.29064,0.83371 -1.75895,3.50512 -3.26292,5.93646 -3.96403,6.40833 -6.39328,12.86119 -12.20412,32.41798 -2.18407,7.35067 -2.33835,8.26045 -2.52666,14.89975 -0.11031,3.88909 -0.78075,12.36435 -1.48987,18.83391 -0.96227,8.77911 -1.2893,14.41622 -1.28925,22.22336 8e-5,13.35693 -1.37215,25.68102 -3.53706,31.76655 -1.82802,5.13851 -3.27958,12.7834 -4.29793,22.6356 -0.4307,4.16688 -1.01904,8.76791 -1.30743,10.22451 -0.28839,1.4566 -0.69369,7.61269 -0.90066,13.68022 -0.35012,10.26409 -0.46192,11.20462 -1.60637,13.51408 l -1.23006,2.48221 -9.09137,0.104 c -5.00026,0.0572 -17.04633,0.2036 -26.76904,0.32533 -9.72272,0.12174 -19.38231,0.0407 -21.46575,-0.18012 z"
       id="path3881"
       inkscape:connector-curvature="0"
       sodipodi:nodetypes="csscccsssssssssssssssssssssssssssssssssssssssssscssssssssssssssssssscssssssssssssscsssssssssscsscc" />
    <path
       style="fill:#ff6600;fill-opacity:1;stroke:none"
       d="m 296.30849,547.61607 -72.0942,-3.43267 53.53089,46.29143 4.13929,-12.25738 c 38.70948,20.72903 53.75896,49.44283 59.23949,87.92173 l 21.04672,-1.11686 c 4.76625,-38.47889 16.2443,-64.78982 54.95378,-85.51885 l 2.71072,12.97169 53.53089,-46.29145 -71.37991,2.0041 8.32064,11.22159 c -25.98638,11.60839 -48.14062,29.71272 -60.55885,60.84485 -12.3174,-31.91706 -34.70548,-50.36436 -61.04583,-62.13087 z"
       id="rect3883"
       inkscape:connector-curvature="0"
       sodipodi:nodetypes="cccccccccccccc" />
  </g>
</svg>
