<?xml version="1.0" encoding="UTF-8" standalone="no"?>
<!-- Created with Inkscape (http://www.inkscape.org/) -->

<svg
   xmlns:dc="http://purl.org/dc/elements/1.1/"
   xmlns:cc="http://creativecommons.org/ns#"
   xmlns:rdf="http://www.w3.org/1999/02/22-rdf-syntax-ns#"
   xmlns:svg="http://www.w3.org/2000/svg"
   xmlns="http://www.w3.org/2000/svg"
   xmlns:sodipodi="http://sodipodi.sourceforge.net/DTD/sodipodi-0.dtd"
   xmlns:inkscape="http://www.inkscape.org/namespaces/inkscape"
   width="250"
   height="250"
   id="svg3861"
   version="1.1"
   inkscape:version="0.48.4 r9939"
   sodipodi:docname="branch.svg"
   inkscape:export-filename="C:\home\vaucher\dev\js\branch-off\branch.png"
   inkscape:export-xdpi="23.09"
   inkscape:export-ydpi="23.09">
  <defs
     id="defs3863" />
  <sodipodi:namedview
     id="base"
     pagecolor="#ffffff"
     bordercolor="#666666"
     borderopacity="1.0"
     inkscape:pageopacity="0.0"
     inkscape:pageshadow="2"
     inkscape:zoom="1.979899"
     inkscape:cx="134.8839"
     inkscape:cy="143.57863"
     inkscape:document-units="px"
     inkscape:current-layer="layer1"
     showgrid="false"
     inkscape:window-width="1332"
     inkscape:window-height="910"
     inkscape:window-x="184"
     inkscape:window-y="107"
     inkscape:window-maximized="0"
     fit-margin-top="0"
     fit-margin-left="0"
     fit-margin-right="0"
     fit-margin-bottom="0" />
  <metadata
     id="metadata3866">
    <rdf:RDF>
      <cc:Work
         rdf:about="">
        <dc:format>image/svg+xml</dc:format>
        <dc:type
           rdf:resource="http://purl.org/dc/dcmitype/StillImage" />
        <dc:title></dc:title>
      </cc:Work>
    </rdf:RDF>
  </metadata>
  <g
     inkscape:label="Layer 1"
     inkscape:groupmode="layer"
     id="layer1"
     transform="translate(-0.45454921,55.109327)">
    <path
       style="fill:#000000;fill-opacity:1;stroke:none"
       d="m 15.079549,-55.385914 c -0.438597,0.006 -0.946658,-0.0025 -1.59375,0.0425 -0.271206,0.01886 -0.630265,0.0955 -0.9375,0.127496 l -12.09374979,0 0.65624999,6.589844 c -0.049682,0.123049 -0.11934455,0.258529 -0.15624999,0.382487 -0.60624339,2.036227 -0.12132649,9.929384 1.12499999,18.274381 0.5325044,3.565467 1.1721947,8.043083 1.40625,9.944663 0.5962477,4.844206 1.3074095,7.184862 3.625,11.8995966 4.7291598,9.6206363 5.4150028,12.1651536 5.6874998,20.7392974 0.271851,8.553914 1.355167,12.720607 4.0625,15.724467 2.729585,3.028545 6.488618,9.699652 9.8125,17.424409 1.485712,3.452818 3.349577,6.925801 6.375,11.899597 5.198554,8.546429 11.888933,20.389086 13.96875,24.734162 0.843718,1.762662 1.862806,4.225447 2.25,5.482314 0.38719,1.256875 1.37453,3.55479 2.21875,5.099827 2.151049,3.936736 3.226644,6.879788 5.8125,15.851963 1.240548,4.30436 2.751209,9.25297 3.34375,11.00712 2.331061,6.90084 5.65204,19.52458 6.1875,23.50171 0.286478,2.12781 0.778117,4.93995 1.09375,6.24729 1.864265,7.72167 2.239722,13.476 2.625,41.47859 0.01936,1.40734 0.03989,2.47378 0.0625,3.82487 l 100.187501,0 c 0.0159,-6.22697 0.20355,-10.97322 0.65625,-18.14688 0.34935,-5.53579 0.66445,-12.77918 0.71875,-16.10696 0.0928,-5.68103 0.17403,-6.50232 1.25,-12.79206 2.86268,-16.73413 4.04714,-22.22566 6,-27.70907 0.74092,-2.08041 1.48181,-4.38644 1.625,-5.09982 0.14317,-0.71338 0.6549,-2.0338 1.15625,-2.9324 0.50136,-0.8986 1.74859,-3.34303 2.75,-5.48232 1.00142,-2.13928 2.21197,-4.42058 2.6875,-5.01483 0.47552,-0.59424 1.14432,-2.041396 1.5,-3.229886 0.94498,-3.157642 1.56079,-4.38549 3.9375,-7.989729 1.17955,-1.788768 2.92362,-5.043977 3.90625,-7.309752 3.95182,-9.112146 10.3336,-22.933935 12.1875,-26.349107 2.67117,-4.920685 4.08972,-7.996709 7.6875,-16.871929 2.76345,-6.817053 3.23072,-8.241558 4.65625,-14.279516 2.18733,-9.264703 3.07699,-12.306074 4.65625,-15.8094638 2.16266,-4.7975991 6.87407,-17.2679699 8.75,-23.1617152 0.97424,-3.060829 1.99679,-5.252777 5.5625,-11.772101 2.40483,-4.396819 5.42304,-9.486842 6.6875,-11.304617 1.82783,-2.627671 2.5432,-3.878581 2.53125,-4.504847 l 0.25,0 0,-14.239585 -41.40625,0.424985 -1.71875,12.072159 c -0.48988,1.223768 -0.96351,3.017213 -1.71875,5.652308 -1.37103,4.783583 -1.97252,7.301086 -2.09375,9.009695 -0.48518,6.838111 -1.7773,12.879265 -4.1875,19.3793433 -1.67935,4.5290219 -3.73255,10.9898896 -4.03125,12.6645708 -0.14839,0.8319491 -1.08184,3.5843587 -2.0625,6.1622909 -0.98066,2.577934 -1.78125,5.116412 -1.78125,5.652309 0,1.311193 -0.87951,3.407471 -4.125,9.562176 -1.50411,2.852373 -3.20791,6.289612 -3.78125,7.64974 -1.17001,2.775593 -1.9589,3.66602 -8.71875,9.562176 -4.87452,4.251708 -10.31849,11.012567 -13.84375,17.296914 -1.60715,2.865003 -2.53571,4.151462 -3.25,4.547346 -0.54741,0.303387 -1.19367,0.925975 -1.46875,1.359954 -0.71338,1.125417 -2.88687,2.692189 -5.625,4.079862 -3.63242,1.840875 -4.6542,2.79765 -7.3125,6.842268 -1.35337,2.059159 -2.93547,4.276119 -3.53125,4.929833 -0.59578,0.653723 -1.09351,1.445994 -1.09375,1.742441 -9.8e-4,1.185409 -1.91308,4.107158 -4.0625,6.204789 -1.24949,1.21937 -2.96014,3.168434 -3.78125,4.292355 -3.25763,4.458976 -4.16084,4.148251 -7.25,-2.507415 -0.56686,-1.221314 -2.21248,-4.136195 -3.65625,-6.459781 -1.64657,-2.649981 -3.46871,-6.258579 -4.9375,-9.647173 -1.28789,-2.971224 -3.34058,-7.261541 -4.53125,-9.519678 -1.19068,-2.258126 -2.68088,-5.339728 -3.3125,-6.884766 -3.29578,-8.061906 -3.69315,-8.880355 -5.1875,-10.242153 -0.80543,-0.733984 -2.769944,-2.037884 -4.343751,-2.932401 -3.119568,-1.773082 -4.730906,-3.070037 -5.84375,-4.632343 -0.395855,-0.555733 -1.680503,-1.811148 -2.84375,-2.804905 -1.18079,-1.00874 -3.850318,-4.083357 -6.03125,-6.927265 C 80.16179,28.364729 76.295422,23.944032 73.235799,20.816571 67.009611,14.452319 64.799632,11.79678 61.892049,7.1745331 60.709959,5.2953474 59.232551,3.1846799 58.610799,2.4996915 54.84337,-1.6509354 52.060006,-7.9605504 51.204549,-14.329738 c -0.192585,-1.433861 -1.136538,-5.439919 -2.125,-8.882199 -1.603095,-5.582741 -2.013995,-6.57351 -3.75,-9.604675 -1.110253,-1.938561 -3.163276,-4.803298 -4.75,-6.629775 -1.529789,-1.760931 -3.25916,-4.117161 -3.875,-5.227323 -1.099584,-1.98222 -2.021099,-3.245466 -3.15625,-4.12236 l -1.53125,-6.41985 -15.4375,0 c -0.396308,-0.108973 -0.842105,-0.178867 -1.5,-0.169994 z"
       id="path3881"
       inkscape:connector-curvature="0"
       sodipodi:nodetypes="cscccssssssssssssssssccscsscssssssssssssscccccssssssssssscssscsssssssssssssssssssscccc" />
    <path
       style="fill:#ff6600;fill-opacity:1;stroke:none"
       d="m 102.34609,-26.967352 -35.516812,-1.691087 26.371697,22.805218 2.039199,-6.03853 c 19.070016,10.212042 26.484056,24.357737 29.184006,43.314154 l 10.36855,-0.550215 c 2.34807,-18.956412 8.00267,-31.918346 27.07268,-42.130389 l 1.33542,6.390432 26.3717,-22.805228 -35.16492,0.987309 4.09912,5.528254 C 145.70468,-15.438624 134.79052,-6.519626 128.67274,8.8174459 122.60464,-6.906317 111.57528,-15.994278 98.598849,-21.790984 z"
       id="rect3883"
       inkscape:connector-curvature="0"
       sodipodi:nodetypes="cccccccccccccc" />
  </g>
</svg>
