<?xml version="1.0" encoding="UTF-8" standalone="no"?>
<!-- Created with Inkscape (http://www.inkscape.org/) -->

<svg
   xmlns:dc="http://purl.org/dc/elements/1.1/"
   xmlns:cc="http://creativecommons.org/ns#"
   xmlns:rdf="http://www.w3.org/1999/02/22-rdf-syntax-ns#"
   xmlns:svg="http://www.w3.org/2000/svg"
   xmlns="http://www.w3.org/2000/svg"
   xmlns:sodipodi="http://sodipodi.sourceforge.net/DTD/sodipodi-0.dtd"
   xmlns:inkscape="http://www.inkscape.org/namespaces/inkscape"
   width="744.09448819"
   height="1052.3622047"
   id="svg3780"
   version="1.1"
   inkscape:version="0.48.2 r9819"
   sodipodi:docname="New document 3">
  <defs
     id="defs3782" />
  <sodipodi:namedview
     id="base"
     pagecolor="#ffffff"
     bordercolor="#666666"
     borderopacity="1.0"
     inkscape:pageopacity="0.0"
     inkscape:pageshadow="2"
     inkscape:zoom="1.979899"
     inkscape:cx="264.33685"
     inkscape:cy="620.98835"
     inkscape:document-units="px"
     inkscape:current-layer="layer3"
     showgrid="false"
     inkscape:window-width="1576"
     inkscape:window-height="1031"
     inkscape:window-x="96"
     inkscape:window-y="-8"
     inkscape:window-maximized="1" />
  <metadata
     id="metadata3785">
    <rdf:RDF>
      <cc:Work
         rdf:about="">
        <dc:format>image/svg+xml</dc:format>
        <dc:type
           rdf:resource="http://purl.org/dc/dcmitype/StillImage" />
        <dc:title></dc:title>
      </cc:Work>
    </rdf:RDF>
  </metadata>
  <g
     inkscape:groupmode="layer"
     id="layer3"
     inkscape:label="Arrow">
    <path
       sodipodi:nodetypes="cccccccc"
       inkscape:connector-curvature="0"
       id="use3853"
       d="m 408.55726,375.39269 -40.27543,-9.88723 24.77152,33.15389 2.30555,-7.14239 30.27923,19.47224 6.94713,-10.80275 -29.96382,-19.2694 z"
       style="fill:#ff0000;fill-opacity:1;stroke:none" />
    <path
       sodipodi:nodetypes="cccccccc"
       inkscape:connector-curvature="0"
       id="use3855"
       d="m 237.04773,391.41013 25.73318,-32.52185 -40.45057,8.74987 5.53788,5.0657 -30.29605,19.44606 6.93778,10.80874 29.98047,-19.24349 z"
       style="fill:#ff0000;fill-opacity:1;stroke:none" />
  </g>
  <g
     inkscape:label="Layer 1"
     inkscape:groupmode="layer"
     id="layer1"
     sodipodi:insensitive="true">
    <path
       style="fill:#000000;fill-opacity:1;stroke:none"
       d="m 284.37491,308.30149 8.44966,2.47397 c -5.67315,57.03531 -3.24731,41.32584 16.43317,80.94236 l -22.67706,21.7 c -26.25679,-57.43834 -15.23976,-68.48649 -2.20577,-105.11633 z"
       id="rect3788"
       inkscape:connector-curvature="0"
       sodipodi:nodetypes="ccccc" />
    <path
       style="fill:#000000;fill-opacity:1;stroke:none"
       d="m 309.52148,383.74229 c -13.18288,0 -23.87294,10.94873 -23.87294,24.47903 0,13.53031 10.69006,24.50209 23.87294,24.50209 13.18288,0 23.87294,-10.97178 23.87294,-24.50209 0,-13.5303 -10.69006,-24.47903 -23.87294,-24.47903 z m 0,17.6332 c 3.68554,0 6.67005,3.06317 6.67005,6.84583 0,3.78267 -2.98451,6.86889 -6.67005,6.86889 -3.68554,0 -6.67005,-3.08622 -6.67005,-6.86889 0,-3.78266 2.98451,-6.84583 6.67005,-6.84583 z"
       id="path3790"
       inkscape:connector-curvature="0" />
    <path
       style="fill:#000000;fill-opacity:1;stroke:none"
       d="m 386.53566,320.38418 c 0,0 -23.83789,-0.1315 -39.03125,3.75 -15.19336,3.8815 -39.51959,15.82946 -33.5625,51.15625 0.44399,2.63298 0.92464,5.02725 1.46875,7.21875 0.01,0.002 0.0213,-0.002 0.0312,0 10.76686,1.68557 19.15045,10.73959 20.125,22 0.0627,-0.0209 0.25,-0.0625 0.25,-0.0625 l 50.71875,-84.0625 z"
       id="path3803"
       inkscape:connector-curvature="0" />
    <path
       style="fill:#000000;fill-opacity:1;stroke:none"
       d="m 313.42784,426.09764 15.67603,-19.51718 c 0,0 12.29817,4.24492 18.79836,34.65956 6.50019,30.41464 -0.59184,71.12063 31.43963,106.8941 l -6.79546,7.24006 c -2.77571,-5.93481 -29.85484,-21.22912 -36.49694,-69.75759 -6.6421,-48.52847 -22.64627,-59.63648 -22.62162,-59.51895 z"
       id="rect3821"
       inkscape:connector-curvature="0"
       sodipodi:nodetypes="cczcczc" />
    <path
       style="fill:#000000;fill-opacity:1;stroke:none"
       d="m 283.51339,409.60714 -16.6875,10.96875 -0.0312,0 c 2.1e-4,0.0103 -2.1e-4,0.0209 0,0.0312 l -0.34375,0.21875 0.34375,0.53125 c 0.60063,40.01533 -14.75329,93.84139 -42.28125,118.5625 l 7.84375,7.5 c 38.86962,-40.66127 43.94683,-52.364 58.34375,-106.15625 l 11.625,-7.65625 c -10.75186,-2.38362 -18.8125,-12.22129 -18.8125,-23.96875 0,-0.0106 -10e-6,-0.0207 0,-0.0312 z"
       id="path3832"
       inkscape:connector-curvature="0" />
  </g>
</svg>
