<?xml version="1.0" encoding="UTF-8" standalone="no"?>
<!-- Created with Inkscape (http://www.inkscape.org/) -->

<svg
   xmlns:dc="http://purl.org/dc/elements/1.1/"
   xmlns:cc="http://creativecommons.org/ns#"
   xmlns:rdf="http://www.w3.org/1999/02/22-rdf-syntax-ns#"
   xmlns:svg="http://www.w3.org/2000/svg"
   xmlns="http://www.w3.org/2000/svg"
   xmlns:sodipodi="http://sodipodi.sourceforge.net/DTD/sodipodi-0.dtd"
   xmlns:inkscape="http://www.inkscape.org/namespaces/inkscape"
   width="250"
   height="250"
   id="svg3780"
   version="1.1"
   inkscape:version="0.48.4 r9939"
   sodipodi:docname="cut.svg"
   inkscape:export-filename="C:\home\vaucher\dev\js\branch-off\cut.png"
   inkscape:export-xdpi="22.937855"
   inkscape:export-ydpi="22.937855">
  <defs
     id="defs3782" />
  <sodipodi:namedview
     id="base"
     pagecolor="#ffffff"
     bordercolor="#666666"
     borderopacity="1.0"
     inkscape:pageopacity="0.0"
     inkscape:pageshadow="2"
     inkscape:zoom="1.979899"
     inkscape:cx="146.34285"
     inkscape:cy="92.632222"
     inkscape:document-units="px"
     inkscape:current-layer="layer3"
     showgrid="false"
     inkscape:window-width="1152"
     inkscape:window-height="881"
     inkscape:window-x="176"
     inkscape:window-y="75"
     inkscape:window-maximized="0"
     showguides="true"
     inkscape:guide-bbox="true"
     fit-margin-top="0"
     fit-margin-left="0"
     fit-margin-right="0"
     fit-margin-bottom="0" />
  <metadata
     id="metadata3785">
    <rdf:RDF>
      <cc:Work
         rdf:about="">
        <dc:format>image/svg+xml</dc:format>
        <dc:type
           rdf:resource="http://purl.org/dc/dcmitype/StillImage" />
        <dc:title></dc:title>
      </cc:Work>
    </rdf:RDF>
  </metadata>
  <g
     inkscape:groupmode="layer"
     id="layer3"
     inkscape:label="Arrow"
     transform="translate(0.41772721,-802.87431)">
    <path
       sodipodi:nodetypes="cccccccc"
       inkscape:connector-curvature="0"
       id="use3853"
       d="m 218.01779,871.94942 -40.93408,-10.04892 25.17663,33.69608 2.34325,-7.25919 30.77442,19.79069 7.06074,-10.97943 -30.45385,-19.58452 z"
       style="fill:#ff0000;fill-opacity:1;stroke:none" />
    <path
       sodipodi:nodetypes="cccccccc"
       inkscape:connector-curvature="0"
       id="use3855"
       d="m 43.703418,888.2288 26.154018,-33.0537 -41.112099,8.89297 5.628445,5.14853 -30.7915092,19.76408 7.0512402,10.98551 30.470768,-19.5582 z"
       style="fill:#ff0000;fill-opacity:1;stroke:none" />
  </g>
  <g
     inkscape:label="Layer 1"
     inkscape:groupmode="layer"
     id="layer1"
     transform="translate(0.41772721,-802.87431)">
    <path
       style="fill:#000000;fill-opacity:1;stroke:none"
       d="m 91.804583,803.76101 8.587847,2.51443 c -5.765927,57.96806 -3.300415,42.00168 16.70191,82.26609 L 94.046426,910.59642 C 67.360235,852.21872 78.557437,840.98989 91.804583,803.76101 z"
       id="rect3788"
       inkscape:connector-curvature="0"
       sodipodi:nodetypes="ccccc" />
    <path
       style="fill:#000000;fill-opacity:1;stroke:none"
       d="m 117.36239,880.43556 c -13.39847,0 -24.263353,11.12779 -24.263353,24.87937 0,13.75158 10.864883,24.9028 24.263353,24.9028 13.39847,0 24.26335,-11.15122 24.26335,-24.9028 0,-13.75158 -10.86488,-24.87937 -24.26335,-24.87937 z m 0,17.92158 c 3.74582,0 6.77914,3.11327 6.77914,6.95779 0,3.84454 -3.03332,6.98123 -6.77914,6.98123 -3.74581,0 -6.77913,-3.13669 -6.77913,-6.98123 0,-3.84452 3.03332,-6.95779 6.77913,-6.95779 z"
       id="path3790"
       inkscape:connector-curvature="0" />
    <path
       style="fill:#000000;fill-opacity:1;stroke:none"
       d="m 195.63606,816.0413 c 0,0 -24.22773,-0.13365 -39.66957,3.81133 -15.44183,3.94498 -40.16589,16.08833 -34.11138,51.99286 0.45125,2.67603 0.93976,5.10947 1.49277,7.3368 0.0102,0.002 0.0216,-0.002 0.0317,0 10.94294,1.71313 19.46364,10.91523 20.45412,22.35979 0.0637,-0.0212 0.2541,-0.0636 0.2541,-0.0636 l 51.5482,-85.43725 z"
       id="path3803"
       inkscape:connector-curvature="0" />
    <path
       style="fill:#000000;fill-opacity:1;stroke:none"
       d="m 117.33264,921.4836 15.93239,-19.83637 c 0,0 12.49929,4.31436 19.10579,35.22639 6.60649,30.91204 -0.60152,72.28378 31.95379,108.64218 l -6.90659,7.3585 c -2.82111,-6.0319 -30.34309,-21.5763 -37.09381,-70.89838 -6.75073,-49.3221 -23.01662,-60.61176 -22.99157,-60.49232 z"
       id="rect3821"
       inkscape:connector-curvature="0"
       sodipodi:nodetypes="cczcczc" />
    <path
       style="fill:#000000;fill-opacity:1;stroke:none"
       d="m 90.928974,906.72342 -16.960407,11.14813 -0.03171,0 c 2.13e-4,0.0105 -2.14e-4,0.0212 0,0.0317 l -0.349372,0.22233 0.349372,0.53994 c 0.61045,40.6697 -14.994567,95.37608 -42.972721,120.50148 l 7.972026,7.6225 c 39.505298,-41.3261 44.66554,-53.22021 59.297909,-107.89218 l 11.815109,-7.78146 c -10.927689,-2.4226 -19.120155,-12.42115 -19.120155,-24.36073 0,-0.0108 -10e-6,-0.021 0,-0.0317 z"
       id="path3832"
       inkscape:connector-curvature="0" />
  </g>
</svg>
